<svg xmlns="http://www.w3.org/2000/svg" xmlns:xlink="http://www.w3.org/1999/xlink" width="1040" height="581.04"><rect width="1040" height="581.04" rx="5" ry="5" class="a"/><svg y="0%" x="0%"><circle cx="20" cy="20" r="6" fill="#ff5f58"/><circle cx="40" cy="20" r="6" fill="#ffbd2e"/><circle cx="60" cy="20" r="6" fill="#18c132"/></svg><svg height="521.04" viewBox="0 0 100 52.104" width="1000" x="15" xmlns="http://www.w3.org/2000/svg" xmlns:xlink="http://www.w3.org/1999/xlink" y="50"><style>@keyframes l{0%{transform:translateX(0)}.02%{transform:translateX(-100px)}12.88%{transform:translateX(-200px)}13.06%{transform:translateX(-300px)}13.18%{transform:translateX(-400px)}13.3%{transform:translateX(-500px)}13.52%{transform:translateX(-600px)}13.77%{transform:translateX(-700px)}14.08%{transform:translateX(-800px)}14.33%{transform:translateX(-900px)}14.54%{transform:translateX(-1000px)}14.65%{transform:translateX(-1100px)}14.88%{transform:translateX(-1200px)}15.04%{transform:translateX(-1300px)}15.25%{transform:translateX(-1400px)}15.26%{transform:translateX(-1500px)}30.29%{transform:translateX(-1700px)}42.29%{transform:translateX(-1800px)}42.45%{transform:translateX(-1900px)}42.7%{transform:translateX(-2000px)}43.01%{transform:translateX(-2100px)}43.17%{transform:translateX(-2200px)}43.42%{transform:translateX(-2300px)}43.58%{transform:translateX(-2400px)}43.79%{transform:translateX(-2500px)}43.99%{transform:translateX(-2600px)}44.18%{transform:translateX(-2700px)}44.38%{transform:translateX(-2800px)}44.39%{transform:translateX(-2900px)}44.4%{transform:translateX(-3000px)}53.39%{transform:translateX(-3100px)}53.62%{transform:translateX(-3200px)}53.74%{transform:translateX(-3300px)}54.06%{transform:translateX(-3400px)}54.31%{transform:translateX(-3500px)}54.51%{transform:translateX(-3600px)}54.74%{transform:translateX(-3700px)}54.99%{transform:translateX(-3800px)}55.25%{transform:translateX(-3900px)}55.49%{transform:translateX(-4000px)}55.75%{transform:translateX(-4100px)}55.96%{transform:translateX(-4200px)}56.08%{transform:translateX(-4300px)}56.2%{transform:translateX(-4400px)}56.31%{transform:translateX(-4500px)}56.32%{transform:translateX(-4600px)}56.33%{transform:translateX(-4700px)}65.33%{transform:translateX(-4800px)}65.65%{transform:translateX(-4900px)}65.84%{transform:translateX(-5000px)}66.02%{transform:translateX(-5100px)}66.14%{transform:translateX(-5200px)}66.35%{transform:translateX(-5300px)}66.58%{transform:translateX(-5400px)}66.76%{transform:translateX(-5500px)}66.92%{transform:translateX(-5600px)}67.09%{transform:translateX(-5700px)}67.31%{transform:translateX(-5800px)}67.43%{transform:translateX(-5900px)}67.68%{transform:translateX(-6000px)}67.84%{transform:translateX(-6100px)}67.95%{transform:translateX(-6200px)}68.18%{transform:translateX(-6400px)}87.44%{transform:translateX(-6500px)}97.72%{transform:translateX(-6600px)}97.96%{transform:translateX(-6700px)}98.16%{transform:translateX(-6800px)}98.28%{transform:translateX(-6900px)}98.53%{transform:translateX(-7000px)}98.76%{transform:translateX(-7100px)}99.01%{transform:translateX(-7200px)}99.18%{transform:translateX(-7300px)}99.51%{transform:translateX(-7400px)}99.75%{transform:translateX(-7500px)}99.99%{transform:translateX(-7600px)}to{transform:translateX(-7800px)}}.a{fill:#282d35}.f{fill:#a8cc8c;font-weight:700;white-space:pre}.g{fill:#b9c0cb}.g,.h,.i,.n{white-space:pre}.h{fill:#b9c0cb;font-weight:700}.i,.n{fill:#66c2cd}.n{fill:#a8cc8c}</style><g font-family="Monaco,Consolas,Menlo,'Bitstream Vera Sans Mono','Powerline Symbols',monospace" font-size="1.67"><defs><symbol id="1"><text y="1.67" class="f">$</text></symbol><symbol id="2"><text y="1.67" class="f">$</text><text x="2.004" y="1.67" class="g">b</text></symbol><symbol id="3"><text y="1.67" class="f">$</text><text x="2.004" y="1.67" class="g">be</text></symbol><symbol id="4"><text y="1.67" class="f">$</text><text x="2.004" y="1.67" class="g">ber</text></symbol><symbol id="5"><text y="1.67" class="f">$</text><text x="2.004" y="1.67" class="g">bert</text></symbol><symbol id="6"><text y="1.67" class="f">$</text><text x="2.004" y="1.67" class="g">berth</text></symbol><symbol id="7"><text y="1.67" class="f">$</text><text x="2.004" y="1.67" class="g">berth</text><text x="8.016" y="1.67" class="g">doctor</text></symbol><symbol id="8"><text y="1.67" class="f">$</text><text x="2.004" y="1.67" class="g">berth</text><text x="8.016" y="1.67" class="g">l</text></symbol><symbol id="9"><text y="1.67" class="f">$</text><text x="2.004" y="1.67" class="g">berth</text><text x="8.016" y="1.67" class="g">li</text></symbol><symbol id="10"><text y="1.67" class="f">$</text><text x="2.004" y="1.67" class="g">berth</text><text x="8.016" y="1.67" class="g">lis</text></symbol><symbol id="11"><text y="1.67" class="f">$</text><text x="2.004" y="1.67" class="g">berth</text><text x="8.016" y="1.67" class="g">list</text></symbol><symbol id="12"><text y="1.67" class="h">NAME</text><text x="6.012" y="1.67" class="h">TYPE</text><text x="13.026" y="1.67" class="h">LAST</text><text x="18.036" y="1.67" class="h">USED</text><text x="24.048" y="1.67" class="h">PATH</text></symbol><symbol id="13"><text y="1.67" class="h">app</text><text x="6.012" y="1.67" class="g">local</text><text x="13.026" y="1.67" class="g">never</text><text x="24.048" y="1.67" class="g">/home/dev/code/app</text></symbol><symbol id="14"><text y="1.67" class="h">docs</text><text x="6.012" y="1.67" class="g">local</text><text x="13.026" y="1.67" class="g">never</text><text x="24.048" y="1.67" class="g">/home/dev/code/docs</text></symbol><symbol id="15"><text y="1.67" class="f">$</text><text x="2.004" y="1.67" class="g">berth</text><text x="8.016" y="1.67" class="g">show</text></symbol><symbol id="16"><text y="1.67" class="f">$</text><text x="2.004" y="1.67" class="g">berth</text><text x="8.016" y="1.67" class="g">show</text><text x="13.026" y="1.67" class="g">app</text></symbol><symbol id="17"><text y="1.67" class="h">app</text></symbol><symbol id="18"><text x="2.004" y="1.67" class="g">host</text><text x="13.026" y="1.67" class="g">=</text><text x="15.03" y="1.67" class="g">(local)</text><text x="23.046" y="1.67" class="g">(inherited)</text></symbol><symbol id="19"><text x="2.004" y="1.67" class="g">dir</text><text x="13.026" y="1.67" class="g">=</text><text x="15.03" y="1.67" class="i">~/code/app</text></symbol><symbol id="20"><text x="2.004" y="1.67" class="g">ports</text><text x="13.026" y="1.67" class="g">=</text><text x="15.03" y="1.67" class="g">(none)</text></symbol><symbol id="21"><text x="2.004" y="1.67" class="g">command</text><text x="13.026" y="1.67" class="g">=</text><text x="15.03" y="1.67" class="i">bash</text><text x="20.04" y="1.67" class="i">-c</text><text x="23.046" y="1.67" class="i">cd</text><text x="26.052" y="1.67" class="i">~/code/app</text><text x="37.074" y="1.67" class="i">&amp;&amp;</text><text x="40.08" y="1.67" class="i">assist</text></symbol><symbol id="22"><text x="2.004" y="1.67" class="g">local</text><text x="8.016" y="1.67" class="g">path</text><text x="13.026" y="1.67" class="g">=</text><text x="15.03" y="1.67" class="g">/home/dev/code/app</text></symbol><symbol id="23"><text y="1.67" class="f">$</text><text x="2.004" y="1.67" class="g">berth</text><text x="8.016" y="1.67" class="g">enter</text></symbol><symbol id="24"><text y="1.67" class="f">$</text><text x="2.004" y="1.67" class="g">berth</text><text x="8.016" y="1.67" class="g">enter</text><text x="14.028" y="1.67" class="g">app</text></symbol><symbol id="25"><text x="2.004" y="1.67" class="g">#</text><text x="4.008" y="1.67" class="g">opens</text><text x="10.02" y="1.67" class="g">an</text><text x="13.026" y="1.67" class="g">interactive</text><text x="25.05" y="1.67" class="g">session</text><text x="33.066" y="1.67" class="g">running</text><text x="41.082" y="1.67" class="g">the</text><text x="45.09" y="1.67" class="g">bundled</text><text x="53.106" y="1.67" class="g">argv:</text></symbol><symbol id="26"><text x="2.004" y="1.67" class="g">#</text><text x="8.016" y="1.67" class="g">bash</text><text x="13.026" y="1.67" class="g">-c</text><text x="16.032" y="1.67" class="g">&quot;cd</text><text x="20.04" y="1.67" class="g">~/code/app</text><text x="31.062" y="1.67" class="g">&amp;&amp;</text><text x="34.068" y="1.67" class="g">assist&quot;</text></symbol><symbol id="27"><text x="2.004" y="1.67" class="g">#</text><text x="4.008" y="1.67" class="g">meta+T</text><text x="11.022" y="1.67" class="g">(or</text><text x="15.03" y="1.67" class="g">Ctrl+Shift+T)</text><text x="29.058" y="1.67" class="g">opens</text><text x="35.07" y="1.67" class="g">another</text><text x="43.086" y="1.67" class="g">tab</text><text x="47.094" y="1.67" class="g">with</text><text x="52.104" y="1.67" class="g">the</text></symbol><symbol id="28"><text x="2.004" y="1.67" class="g">#</text><text x="4.008" y="1.67" class="g">same</text><text x="9.018" y="1.67" class="g">setup</text><text x="15.03" y="1.67" class="g">—</text><text x="17.034" y="1.67" class="g">independent</text><text x="29.058" y="1.67" class="g">session,</text><text x="38.076" y="1.67" class="g">same</text><text x="43.086" y="1.67" class="g">environment.</text></symbol><symbol id="a"><path fill="transparent" d="M0 0h100v25H0z"/></symbol><symbol id="b"><path fill="#6f7683" d="M0 0h1.102v2.171H0z"/></symbol></defs><path class="a" d="M0 0h100v52.104H0z"/><g style="animation-duration:23.377639s;animation-iteration-count:infinite;animation-name:l;animation-timing-function:steps(1,end)"><svg width="7900"><svg><use xlink:href="#a"/><use xlink:href="#b" x="-.004"/></svg><svg x="100"><use xlink:href="#a"/><use xlink:href="#b" x="1.996"/><use xlink:href="#1"/></svg><svg x="200"><use xlink:href="#a"/><use xlink:href="#b" x="2.996"/><use xlink:href="#2"/></svg><svg x="300"><use xlink:href="#a"/><use xlink:href="#b" x="3.996"/><use xlink:href="#3"/></svg><svg x="400"><use xlink:href="#a"/><use xlink:href="#b" x="4.996"/><use xlink:href="#4"/></svg><svg x="500"><use xlink:href="#a"/><use xlink:href="#b" x="5.996"/><use xlink:href="#5"/></svg><svg x="600"><use xlink:href="#a"/><use xlink:href="#b" x="6.996"/><use xlink:href="#6"/></svg><svg x="700"><use xlink:href="#a"/><use xlink:href="#b" x="7.996"/><use xlink:href="#6"/></svg><svg x="800"><use xlink:href="#a"/><use xlink:href="#b" x="8.996"/><text y="1.67" class="f">$</text><text x="2.004" y="1.67" class="g">berth</text><text x="8.016" y="1.67" class="g">d</text></svg><svg x="900"><use xlink:href="#a"/><use xlink:href="#b" x="9.996"/><text y="1.67" class="f">$</text><text x="2.004" y="1.67" class="g">berth</text><text x="8.016" y="1.67" class="g">do</text></svg><svg x="1000"><use xlink:href="#a"/><use xlink:href="#b" x="10.996"/><text y="1.67" class="f">$</text><text x="2.004" y="1.67" class="g">berth</text><text x="8.016" y="1.67" class="g">doc</text></svg><svg x="1100"><use xlink:href="#a"/><use xlink:href="#b" x="11.996"/><text y="1.67" class="f">$</text><text x="2.004" y="1.67" class="g">berth</text><text x="8.016" y="1.67" class="g">doct</text></svg><svg x="1200"><use xlink:href="#a"/><use xlink:href="#b" x="12.996"/><text y="1.67" class="f">$</text><text x="2.004" y="1.67" class="g">berth</text><text x="8.016" y="1.67" class="g">docto</text></svg><svg x="1300"><use xlink:href="#a"/><use xlink:href="#b" x="13.996"/><use xlink:href="#7"/></svg><svg x="1400"><use xlink:href="#a"/><use xlink:href="#b" x="-.004" y="2.146"/><use xlink:href="#7"/></svg><svg x="1500"><use xlink:href="#a"/><use xlink:href="#b" x="-.004" y="30.369"/><use xlink:href="#7"/><text y="3.841" class="h">Berth</text><text x="6.012" y="3.841" class="h">shell</text><text x="12.024" y="3.841" class="h">integration</text><text x="2.004" y="6.012" class="g">Detected</text><text x="11.022" y="6.012" class="g">shell:</text><text x="18.036" y="6.012" class="i">bash</text><text x="2.004" y="8.183" class="g">Hook</text><text x="7.014" y="8.183" class="g">installed:</text><text x="18.036" y="8.183" class="n">yes</text><text x="2.004" y="10.354" class="g">berth</text><text x="8.016" y="10.354" class="g">on</text><text x="11.022" y="10.354" class="g">PATH:</text><text x="17.034" y="10.354" class="g">/home/dev/.local/bin/berth</text><text y="14.696" class="h">Berth</text><text x="6.012" y="14.696" class="h">discovery</text><text y="16.867" class="g">Auto-discovery:</text><text x="16.032" y="16.867" class="n">enabled</text><text y="19.038" class="g">Default</text><text x="8.016" y="19.038" class="g">local</text><text x="14.028" y="19.038" class="g">runtime:</text><text x="23.046" y="19.038" class="i">podman</text><text y="21.209" class="g">Default</text><text x="8.016" y="21.209" class="g">idle</text><text x="13.026" y="21.209" class="g">shutdown:</text><text x="23.046" y="21.209" class="i">3600s</text><text y="23.38" class="g">Podman:</text><text x="8.016" y="23.38" class="n">ready</text><text x="14.028" y="23.38" class="g">(available,</text><text x="26.052" y="23.38" class="g">rootless)</text><text y="25.551" class="g">kubectl:</text><text x="9.018" y="25.551" class="n">ready</text><text x="15.03" y="25.551" class="g">(available)</text><text y="27.722" class="g">minikube:</text><text x="10.02" y="27.722" style="white-space:pre" fill="#dbab79">available</text><text x="20.04" y="27.722" class="g">(available,</text><text x="32.064" y="27.722" class="g">profile</text><text x="40.08" y="27.722" class="g">probe</text><text x="46.092" y="27.722" class="g">failed</text><text x="53.106" y="27.722" class="g">with</text><text x="58.116" y="27.722" class="g">status</text><text x="65.13" y="27.722" class="g">exit</text><text x="70.14" y="27.722" class="g">status:</text><text x="78.156" y="27.722" class="g">1)</text><text y="29.893" class="g">Kubernetes</text><text x="11.022" y="29.893" class="g">pod</text><text x="15.03" y="29.893" class="g">defaults:</text><text x="25.05" y="29.893" class="g">unavailable</text></svg><svg x="1600"><use xlink:href="#a"/><use xlink:href="#b" x="-.004"/></svg><svg x="1700"><use xlink:href="#a"/><use xlink:href="#b" x="1.996"/><use xlink:href="#1"/></svg><svg x="1800"><use xlink:href="#a"/><use xlink:href="#b" x="2.996"/><use xlink:href="#2"/></svg><svg x="1900"><use xlink:href="#a"/><use xlink:href="#b" x="3.996"/><use xlink:href="#3"/></svg><svg x="2000"><use xlink:href="#a"/><use xlink:href="#b" x="4.996"/><use xlink:href="#4"/></svg><svg x="2100"><use xlink:href="#a"/><use xlink:href="#b" x="5.996"/><use xlink:href="#5"/></svg><svg x="2200"><use xlink:href="#a"/><use xlink:href="#b" x="6.996"/><use xlink:href="#6"/></svg><svg x="2300"><use xlink:href="#a"/><use xlink:href="#b" x="7.996"/><use xlink:href="#6"/></svg><svg x="2400"><use xlink:href="#a"/><use xlink:href="#b" x="8.996"/><use xlink:href="#8"/></svg><svg x="2500"><use xlink:href="#a"/><use xlink:href="#b" x="9.996"/><use xlink:href="#9"/></svg><svg x="2600"><use xlink:href="#a"/><use xlink:href="#b" x="10.996"/><use xlink:href="#10"/></svg><svg x="2700"><use xlink:href="#a"/><use xlink:href="#b" x="11.996"/><use xlink:href="#11"/></svg><svg x="2800"><use xlink:href="#a"/><use xlink:href="#b" x="-.004" y="2.146"/><use xlink:href="#11"/></svg><svg x="2900"><use xlink:href="#a"/><use xlink:href="#b" x="-.004" y="8.659"/><use xlink:href="#11"/><use xlink:href="#12" y="2.171"/><use xlink:href="#13" y="4.342"/><use xlink:href="#14" y="6.513"/></svg><svg x="3000"><use xlink:href="#a"/><use xlink:href="#b" x="1.996" y="8.659"/><use xlink:href="#11"/><use xlink:href="#12" y="2.171"/><use xlink:href="#13" y="4.342"/><use xlink:href="#14" y="6.513"/><use xlink:href="#1" y="8.684"/></svg><svg x="3100"><use xlink:href="#a"/><use xlink:href="#b" x="2.996" y="8.659"/><use xlink:href="#11"/><use xlink:href="#12" y="2.171"/><use xlink:href="#13" y="4.342"/><use xlink:href="#14" y="6.513"/><use xlink:href="#2" y="8.684"/></svg><svg x="3200"><use xlink:href="#a"/><use xlink:href="#b" x="3.996" y="8.659"/><use xlink:href="#11"/><use xlink:href="#12" y="2.171"/><use xlink:href="#13" y="4.342"/><use xlink:href="#14" y="6.513"/><use xlink:href="#3" y="8.684"/></svg><svg x="3300"><use xlink:href="#a"/><use xlink:href="#b" x="4.996" y="8.659"/><use xlink:href="#11"/><use xlink:href="#12" y="2.171"/><use xlink:href="#13" y="4.342"/><use xlink:href="#14" y="6.513"/><use xlink:href="#4" y="8.684"/></svg><svg x="3400"><use xlink:href="#a"/><use xlink:href="#b" x="5.996" y="8.659"/><use xlink:href="#11"/><use xlink:href="#12" y="2.171"/><use xlink:href="#13" y="4.342"/><use xlink:href="#14" y="6.513"/><use xlink:href="#5" y="8.684"/></svg><svg x="3500"><use xlink:href="#a"/><use xlink:href="#b" x="6.996" y="8.659"/><use xlink:href="#11"/><use xlink:href="#12" y="2.171"/><use xlink:href="#13" y="4.342"/><use xlink:href="#14" y="6.513"/><use xlink:href="#6" y="8.684"/></svg><svg x="3600"><use xlink:href="#a"/><use xlink:href="#b" x="7.996" y="8.659"/><use xlink:href="#11"/><use xlink:href="#12" y="2.171"/><use xlink:href="#13" y="4.342"/><use xlink:href="#14" y="6.513"/><use xlink:href="#6" y="8.684"/></svg><svg x="3700"><use xlink:href="#a"/><use xlink:href="#b" x="8.996" y="8.659"/><use xlink:href="#11"/><use xlink:href="#12" y="2.171"/><use xlink:href="#13" y="4.342"/><use xlink:href="#14" y="6.513"/><text y="10.354" class="f">$</text><text x="2.004" y="10.354" class="g">berth</text><text x="8.016" y="10.354" class="g">s</text></svg><svg x="3800"><use xlink:href="#a"/><use xlink:href="#b" x="9.996" y="8.659"/><use xlink:href="#11"/><use xlink:href="#12" y="2.171"/><use xlink:href="#13" y="4.342"/><use xlink:href="#14" y="6.513"/><text y="10.354" class="f">$</text><text x="2.004" y="10.354" class="g">berth</text><text x="8.016" y="10.354" class="g">sh</text></svg><svg x="3900"><use xlink:href="#a"/><use xlink:href="#b" x="10.996" y="8.659"/><use xlink:href="#11"/><use xlink:href="#12" y="2.171"/><use xlink:href="#13" y="4.342"/><use xlink:href="#14" y="6.513"/><text y="10.354" class="f">$</text><text x="2.004" y="10.354" class="g">berth</text><text x="8.016" y="10.354" class="g">sho</text></svg><svg x="4000"><use xlink:href="#a"/><use xlink:href="#b" x="11.996" y="8.659"/><use xlink:href="#11"/><use xlink:href="#12" y="2.171"/><use xlink:href="#13" y="4.342"/><use xlink:href="#14" y="6.513"/><use xlink:href="#15" y="8.684"/></svg><svg x="4100"><use xlink:href="#a"/><use xlink:href="#b" x="12.996" y="8.659"/><use xlink:href="#11"/><use xlink:href="#12" y="2.171"/><use xlink:href="#13" y="4.342"/><use xlink:href="#14" y="6.513"/><use xlink:href="#15" y="8.684"/></svg><svg x="4200"><use xlink:href="#a"/><use xlink:href="#b" x="13.996" y="8.659"/><use xlink:href="#11"/><use xlink:href="#12" y="2.171"/><use xlink:href="#13" y="4.342"/><use xlink:href="#14" y="6.513"/><text y="10.354" class="f">$</text><text x="2.004" y="10.354" class="g">berth</text><text x="8.016" y="10.354" class="g">show</text><text x="13.026" y="10.354" class="g">a</text></svg><svg x="4300"><use xlink:href="#a"/><use xlink:href="#b" x="14.996" y="8.659"/><use xlink:href="#11"/><use xlink:href="#12" y="2.171"/><use xlink:href="#13" y="4.342"/><use xlink:href="#14" y="6.513"/><text y="10.354" class="f">$</text><text x="2.004" y="10.354" class="g">berth</text><text x="8.016" y="10.354" class="g">show</text><text x="13.026" y="10.354" class="g">ap</text></svg><svg x="4400"><use xlink:href="#a"/><use xlink:href="#b" x="15.996" y="8.659"/><use xlink:href="#11"/><use xlink:href="#12" y="2.171"/><use xlink:href="#13" y="4.342"/><use xlink:href="#14" y="6.513"/><use xlink:href="#16" y="8.684"/></svg><svg x="4500"><use xlink:href="#a"/><use xlink:href="#b" x="-.004" y="10.83"/><use xlink:href="#11"/><use xlink:href="#12" y="2.171"/><use xlink:href="#13" y="4.342"/><use xlink:href="#14" y="6.513"/><use xlink:href="#16" y="8.684"/></svg><svg x="4600"><use xlink:href="#a"/><use xlink:href="#b" x="-.004" y="23.856"/><use xlink:href="#11"/><use xlink:href="#12" y="2.171"/><use xlink:href="#13" y="4.342"/><use xlink:href="#14" y="6.513"/><use xlink:href="#16" y="8.684"/><use xlink:href="#17" y="10.855"/><use xlink:href="#18" y="13.026"/><use xlink:href="#19" y="15.197"/><use xlink:href="#20" y="17.368"/><use xlink:href="#21" y="19.539"/><use xlink:href="#22" y="21.71"/></svg><svg x="4700"><use xlink:href="#a"/><use xlink:href="#b" x="1.996" y="23.856"/><use xlink:href="#11"/><use xlink:href="#12" y="2.171"/><use xlink:href="#13" y="4.342"/><use xlink:href="#14" y="6.513"/><use xlink:href="#16" y="8.684"/><use xlink:href="#17" y="10.855"/><use xlink:href="#18" y="13.026"/><use xlink:href="#19" y="15.197"/><use xlink:href="#20" y="17.368"/><use xlink:href="#21" y="19.539"/><use xlink:href="#22" y="21.71"/><use xlink:href="#1" y="23.881"/></svg><svg x="4800"><use xlink:href="#a"/><use xlink:href="#b" x="2.996" y="23.856"/><use xlink:href="#11"/><use xlink:href="#12" y="2.171"/><use xlink:href="#13" y="4.342"/><use xlink:href="#14" y="6.513"/><use xlink:href="#16" y="8.684"/><use xlink:href="#17" y="10.855"/><use xlink:href="#18" y="13.026"/><use xlink:href="#19" y="15.197"/><use xlink:href="#20" y="17.368"/><use xlink:href="#21" y="19.539"/><use xlink:href="#22" y="21.71"/><use xlink:href="#2" y="23.881"/></svg><svg x="4900"><use xlink:href="#a"/><use xlink:href="#b" x="3.996" y="23.856"/><use xlink:href="#11"/><use xlink:href="#12" y="2.171"/><use xlink:href="#13" y="4.342"/><use xlink:href="#14" y="6.513"/><use xlink:href="#16" y="8.684"/><use xlink:href="#17" y="10.855"/><use xlink:href="#18" y="13.026"/><use xlink:href="#19" y="15.197"/><use xlink:href="#20" y="17.368"/><use xlink:href="#21" y="19.539"/><use xlink:href="#22" y="21.71"/><use xlink:href="#3" y="23.881"/></svg><svg x="5000"><use xlink:href="#a"/><use xlink:href="#b" x="4.996" y="23.856"/><use xlink:href="#11"/><use xlink:href="#12" y="2.171"/><use xlink:href="#13" y="4.342"/><use xlink:href="#14" y="6.513"/><use xlink:href="#16" y="8.684"/><use xlink:href="#17" y="10.855"/><use xlink:href="#18" y="13.026"/><use xlink:href="#19" y="15.197"/><use xlink:href="#20" y="17.368"/><use xlink:href="#21" y="19.539"/><use xlink:href="#22" y="21.71"/><use xlink:href="#4" y="23.881"/></svg><svg x="5100"><use xlink:href="#a"/><use xlink:href="#b" x="5.996" y="23.856"/><use xlink:href="#11"/><use xlink:href="#12" y="2.171"/><use xlink:href="#13" y="4.342"/><use xlink:href="#14" y="6.513"/><use xlink:href="#16" y="8.684"/><use xlink:href="#17" y="10.855"/><use xlink:href="#18" y="13.026"/><use xlink:href="#19" y="15.197"/><use xlink:href="#20" y="17.368"/><use xlink:href="#21" y="19.539"/><use xlink:href="#22" y="21.71"/><use xlink:href="#5" y="23.881"/></svg><svg x="5200"><use xlink:href="#a"/><use xlink:href="#b" x="6.996" y="23.856"/><use xlink:href="#11"/><use xlink:href="#12" y="2.171"/><use xlink:href="#13" y="4.342"/><use xlink:href="#14" y="6.513"/><use xlink:href="#16" y="8.684"/><use xlink:href="#17" y="10.855"/><use xlink:href="#18" y="13.026"/><use xlink:href="#19" y="15.197"/><use xlink:href="#20" y="17.368"/><use xlink:href="#21" y="19.539"/><use xlink:href="#22" y="21.71"/><use xlink:href="#6" y="23.881"/></svg><svg x="5300"><use xlink:href="#a"/><use xlink:href="#b" x="7.996" y="23.856"/><use xlink:href="#11"/><use xlink:href="#12" y="2.171"/><use xlink:href="#13" y="4.342"/><use xlink:href="#14" y="6.513"/><use xlink:href="#16" y="8.684"/><use xlink:href="#17" y="10.855"/><use xlink:href="#18" y="13.026"/><use xlink:href="#19" y="15.197"/><use xlink:href="#20" y="17.368"/><use xlink:href="#21" y="19.539"/><use xlink:href="#22" y="21.71"/><use xlink:href="#6" y="23.881"/></svg><svg x="5400"><use xlink:href="#a"/><use xlink:href="#b" x="8.996" y="23.856"/><use xlink:href="#11"/><use xlink:href="#12" y="2.171"/><use xlink:href="#13" y="4.342"/><use xlink:href="#14" y="6.513"/><use xlink:href="#16" y="8.684"/><use xlink:href="#17" y="10.855"/><use xlink:href="#18" y="13.026"/><use xlink:href="#19" y="15.197"/><use xlink:href="#20" y="17.368"/><use xlink:href="#21" y="19.539"/><use xlink:href="#22" y="21.71"/><text y="25.551" class="f">$</text><text x="2.004" y="25.551" class="g">berth</text><text x="8.016" y="25.551" class="g">e</text></svg><svg x="5500"><use xlink:href="#a"/><use xlink:href="#b" x="9.996" y="23.856"/><use xlink:href="#11"/><use xlink:href="#12" y="2.171"/><use xlink:href="#13" y="4.342"/><use xlink:href="#14" y="6.513"/><use xlink:href="#16" y="8.684"/><use xlink:href="#17" y="10.855"/><use xlink:href="#18" y="13.026"/><use xlink:href="#19" y="15.197"/><use xlink:href="#20" y="17.368"/><use xlink:href="#21" y="19.539"/><use xlink:href="#22" y="21.71"/><text y="25.551" class="f">$</text><text x="2.004" y="25.551" class="g">berth</text><text x="8.016" y="25.551" class="g">en</text></svg><svg x="5600"><use xlink:href="#a"/><use xlink:href="#b" x="10.996" y="23.856"/><use xlink:href="#11"/><use xlink:href="#12" y="2.171"/><use xlink:href="#13" y="4.342"/><use xlink:href="#14" y="6.513"/><use xlink:href="#16" y="8.684"/><use xlink:href="#17" y="10.855"/><use xlink:href="#18" y="13.026"/><use xlink:href="#19" y="15.197"/><use xlink:href="#20" y="17.368"/><use xlink:href="#21" y="19.539"/><use xlink:href="#22" y="21.71"/><text y="25.551" class="f">$</text><text x="2.004" y="25.551" class="g">berth</text><text x="8.016" y="25.551" class="g">ent</text></svg><svg x="5700"><use xlink:href="#a"/><use xlink:href="#b" x="11.996" y="23.856"/><use xlink:href="#11"/><use xlink:href="#12" y="2.171"/><use xlink:href="#13" y="4.342"/><use xlink:href="#14" y="6.513"/><use xlink:href="#16" y="8.684"/><use xlink:href="#17" y="10.855"/><use xlink:href="#18" y="13.026"/><use xlink:href="#19" y="15.197"/><use xlink:href="#20" y="17.368"/><use xlink:href="#21" y="19.539"/><use xlink:href="#22" y="21.71"/><text y="25.551" class="f">$</text><text x="2.004" y="25.551" class="g">berth</text><text x="8.016" y="25.551" class="g">ente</text></svg><svg x="5800"><use xlink:href="#a"/><use xlink:href="#b" x="12.996" y="23.856"/><use xlink:href="#11"/><use xlink:href="#12" y="2.171"/><use xlink:href="#13" y="4.342"/><use xlink:href="#14" y="6.513"/><use xlink:href="#16" y="8.684"/><use xlink:href="#17" y="10.855"/><use xlink:href="#18" y="13.026"/><use xlink:href="#19" y="15.197"/><use xlink:href="#20" y="17.368"/><use xlink:href="#21" y="19.539"/><use xlink:href="#22" y="21.71"/><use xlink:href="#23" y="23.881"/></svg><svg x="5900"><use xlink:href="#a"/><use xlink:href="#b" x="13.996" y="23.856"/><use xlink:href="#11"/><use xlink:href="#12" y="2.171"/><use xlink:href="#13" y="4.342"/><use xlink:href="#14" y="6.513"/><use xlink:href="#16" y="8.684"/><use xlink:href="#17" y="10.855"/><use xlink:href="#18" y="13.026"/><use xlink:href="#19" y="15.197"/><use xlink:href="#20" y="17.368"/><use xlink:href="#21" y="19.539"/><use xlink:href="#22" y="21.71"/><use xlink:href="#23" y="23.881"/></svg><svg x="6000"><use xlink:href="#a"/><use xlink:href="#b" x="14.996" y="23.856"/><use xlink:href="#11"/><use xlink:href="#12" y="2.171"/><use xlink:href="#13" y="4.342"/><use xlink:href="#14" y="6.513"/><use xlink:href="#16" y="8.684"/><use xlink:href="#17" y="10.855"/><use xlink:href="#18" y="13.026"/><use xlink:href="#19" y="15.197"/><use xlink:href="#20" y="17.368"/><use xlink:href="#21" y="19.539"/><use xlink:href="#22" y="21.71"/><text y="25.551" class="f">$</text><text x="2.004" y="25.551" class="g">berth</text><text x="8.016" y="25.551" class="g">enter</text><text x="14.028" y="25.551" class="g">a</text></svg><svg x="6100"><use xlink:href="#a"/><use xlink:href="#b" x="15.996" y="23.856"/><use xlink:href="#11"/><use xlink:href="#12" y="2.171"/><use xlink:href="#13" y="4.342"/><use xlink:href="#14" y="6.513"/><use xlink:href="#16" y="8.684"/><use xlink:href="#17" y="10.855"/><use xlink:href="#18" y="13.026"/><use xlink:href="#19" y="15.197"/><use xlink:href="#20" y="17.368"/><use xlink:href="#21" y="19.539"/><use xlink:href="#22" y="21.71"/><text y="25.551" class="f">$</text><text x="2.004" y="25.551" class="g">berth</text><text x="8.016" y="25.551" class="g">enter</text><text x="14.028" y="25.551" class="g">ap</text></svg><svg x="6200"><use xlink:href="#a"/><use xlink:href="#b" x="16.996" y="23.856"/><use xlink:href="#11"/><use xlink:href="#12" y="2.171"/><use xlink:href="#13" y="4.342"/><use xlink:href="#14" y="6.513"/><use xlink:href="#16" y="8.684"/><use xlink:href="#17" y="10.855"/><use xlink:href="#18" y="13.026"/><use xlink:href="#19" y="15.197"/><use xlink:href="#20" y="17.368"/><use xlink:href="#21" y="19.539"/><use xlink:href="#22" y="21.71"/><use xlink:href="#24" y="23.881"/></svg><svg x="6300"><use xlink:href="#a"/><use xlink:href="#b" x="-.004" y="26.027"/><use xlink:href="#11"/><use xlink:href="#12" y="2.171"/><use xlink:href="#13" y="4.342"/><use xlink:href="#14" y="6.513"/><use xlink:href="#16" y="8.684"/><use xlink:href="#17" y="10.855"/><use xlink:href="#18" y="13.026"/><use xlink:href="#19" y="15.197"/><use xlink:href="#20" y="17.368"/><use xlink:href="#21" y="19.539"/><use xlink:href="#22" y="21.71"/><use xlink:href="#24" y="23.881"/></svg><svg x="6400"><use xlink:href="#a"/><use xlink:href="#b" x="-.004" y="34.711"/><use xlink:href="#11"/><use xlink:href="#12" y="2.171"/><use xlink:href="#13" y="4.342"/><use xlink:href="#14" y="6.513"/><use xlink:href="#16" y="8.684"/><use xlink:href="#17" y="10.855"/><use xlink:href="#18" y="13.026"/><use xlink:href="#19" y="15.197"/><use xlink:href="#20" y="17.368"/><use xlink:href="#21" y="19.539"/><use xlink:href="#22" y="21.71"/><use xlink:href="#24" y="23.881"/><use xlink:href="#25" y="26.052"/><use xlink:href="#26" y="28.223"/><use xlink:href="#27" y="30.394"/><use xlink:href="#28" y="32.565"/></svg><svg x="6500"><use xlink:href="#a"/><use xlink:href="#b" x="1.996" y="34.711"/><use xlink:href="#11"/><use xlink:href="#12" y="2.171"/><use xlink:href="#13" y="4.342"/><use xlink:href="#14" y="6.513"/><use xlink:href="#16" y="8.684"/><use xlink:href="#17" y="10.855"/><use xlink:href="#18" y="13.026"/><use xlink:href="#19" y="15.197"/><use xlink:href="#20" y="17.368"/><use xlink:href="#21" y="19.539"/><use xlink:href="#22" y="21.71"/><use xlink:href="#24" y="23.881"/><use xlink:href="#25" y="26.052"/><use xlink:href="#26" y="28.223"/><use xlink:href="#27" y="30.394"/><use xlink:href="#28" y="32.565"/><use xlink:href="#1" y="34.736"/></svg><svg x="6600"><use xlink:href="#a"/><use xlink:href="#b" x="2.996" y="34.711"/><use xlink:href="#11"/><use xlink:href="#12" y="2.171"/><use xlink:href="#13" y="4.342"/><use xlink:href="#14" y="6.513"/><use xlink:href="#16" y="8.684"/><use xlink:href="#17" y="10.855"/><use xlink:href="#18" y="13.026"/><use xlink:href="#19" y="15.197"/><use xlink:href="#20" y="17.368"/><use xlink:href="#21" y="19.539"/><use xlink:href="#22" y="21.71"/><use xlink:href="#24" y="23.881"/><use xlink:href="#25" y="26.052"/><use xlink:href="#26" y="28.223"/><use xlink:href="#27" y="30.394"/><use xlink:href="#28" y="32.565"/><use xlink:href="#2" y="34.736"/></svg><svg x="6700"><use xlink:href="#a"/><use xlink:href="#b" x="3.996" y="34.711"/><use xlink:href="#11"/><use xlink:href="#12" y="2.171"/><use xlink:href="#13" y="4.342"/><use xlink:href="#14" y="6.513"/><use xlink:href="#16" y="8.684"/><use xlink:href="#17" y="10.855"/><use xlink:href="#18" y="13.026"/><use xlink:href="#19" y="15.197"/><use xlink:href="#20" y="17.368"/><use xlink:href="#21" y="19.539"/><use xlink:href="#22" y="21.71"/><use xlink:href="#24" y="23.881"/><use xlink:href="#25" y="26.052"/><use xlink:href="#26" y="28.223"/><use xlink:href="#27" y="30.394"/><use xlink:href="#28" y="32.565"/><use xlink:href="#3" y="34.736"/></svg><svg x="6800"><use xlink:href="#a"/><use xlink:href="#b" x="4.996" y="34.711"/><use xlink:href="#11"/><use xlink:href="#12" y="2.171"/><use xlink:href="#13" y="4.342"/><use xlink:href="#14" y="6.513"/><use xlink:href="#16" y="8.684"/><use xlink:href="#17" y="10.855"/><use xlink:href="#18" y="13.026"/><use xlink:href="#19" y="15.197"/><use xlink:href="#20" y="17.368"/><use xlink:href="#21" y="19.539"/><use xlink:href="#22" y="21.71"/><use xlink:href="#24" y="23.881"/><use xlink:href="#25" y="26.052"/><use xlink:href="#26" y="28.223"/><use xlink:href="#27" y="30.394"/><use xlink:href="#28" y="32.565"/><use xlink:href="#4" y="34.736"/></svg><svg x="6900"><use xlink:href="#a"/><use xlink:href="#b" x="5.996" y="34.711"/><use xlink:href="#11"/><use xlink:href="#12" y="2.171"/><use xlink:href="#13" y="4.342"/><use xlink:href="#14" y="6.513"/><use xlink:href="#16" y="8.684"/><use xlink:href="#17" y="10.855"/><use xlink:href="#18" y="13.026"/><use xlink:href="#19" y="15.197"/><use xlink:href="#20" y="17.368"/><use xlink:href="#21" y="19.539"/><use xlink:href="#22" y="21.71"/><use xlink:href="#24" y="23.881"/><use xlink:href="#25" y="26.052"/><use xlink:href="#26" y="28.223"/><use xlink:href="#27" y="30.394"/><use xlink:href="#28" y="32.565"/><use xlink:href="#5" y="34.736"/></svg><svg x="7000"><use xlink:href="#a"/><use xlink:href="#b" x="6.996" y="34.711"/><use xlink:href="#11"/><use xlink:href="#12" y="2.171"/><use xlink:href="#13" y="4.342"/><use xlink:href="#14" y="6.513"/><use xlink:href="#16" y="8.684"/><use xlink:href="#17" y="10.855"/><use xlink:href="#18" y="13.026"/><use xlink:href="#19" y="15.197"/><use xlink:href="#20" y="17.368"/><use xlink:href="#21" y="19.539"/><use xlink:href="#22" y="21.71"/><use xlink:href="#24" y="23.881"/><use xlink:href="#25" y="26.052"/><use xlink:href="#26" y="28.223"/><use xlink:href="#27" y="30.394"/><use xlink:href="#28" y="32.565"/><use xlink:href="#6" y="34.736"/></svg><svg x="7100"><use xlink:href="#a"/><use xlink:href="#b" x="7.996" y="34.711"/><use xlink:href="#11"/><use xlink:href="#12" y="2.171"/><use xlink:href="#13" y="4.342"/><use xlink:href="#14" y="6.513"/><use xlink:href="#16" y="8.684"/><use xlink:href="#17" y="10.855"/><use xlink:href="#18" y="13.026"/><use xlink:href="#19" y="15.197"/><use xlink:href="#20" y="17.368"/><use xlink:href="#21" y="19.539"/><use xlink:href="#22" y="21.71"/><use xlink:href="#24" y="23.881"/><use xlink:href="#25" y="26.052"/><use xlink:href="#26" y="28.223"/><use xlink:href="#27" y="30.394"/><use xlink:href="#28" y="32.565"/><use xlink:href="#6" y="34.736"/></svg><svg x="7200"><use xlink:href="#a"/><use xlink:href="#b" x="8.996" y="34.711"/><use xlink:href="#11"/><use xlink:href="#12" y="2.171"/><use xlink:href="#13" y="4.342"/><use xlink:href="#14" y="6.513"/><use xlink:href="#16" y="8.684"/><use xlink:href="#17" y="10.855"/><use xlink:href="#18" y="13.026"/><use xlink:href="#19" y="15.197"/><use xlink:href="#20" y="17.368"/><use xlink:href="#21" y="19.539"/><use xlink:href="#22" y="21.71"/><use xlink:href="#24" y="23.881"/><use xlink:href="#25" y="26.052"/><use xlink:href="#26" y="28.223"/><use xlink:href="#27" y="30.394"/><use xlink:href="#28" y="32.565"/><use xlink:href="#8" y="34.736"/></svg><svg x="7300"><use xlink:href="#a"/><use xlink:href="#b" x="9.996" y="34.711"/><use xlink:href="#11"/><use xlink:href="#12" y="2.171"/><use xlink:href="#13" y="4.342"/><use xlink:href="#14" y="6.513"/><use xlink:href="#16" y="8.684"/><use xlink:href="#17" y="10.855"/><use xlink:href="#18" y="13.026"/><use xlink:href="#19" y="15.197"/><use xlink:href="#20" y="17.368"/><use xlink:href="#21" y="19.539"/><use xlink:href="#22" y="21.71"/><use xlink:href="#24" y="23.881"/><use xlink:href="#25" y="26.052"/><use xlink:href="#26" y="28.223"/><use xlink:href="#27" y="30.394"/><use xlink:href="#28" y="32.565"/><use xlink:href="#9" y="34.736"/></svg><svg x="7400"><use xlink:href="#a"/><use xlink:href="#b" x="10.996" y="34.711"/><use xlink:href="#11"/><use xlink:href="#12" y="2.171"/><use xlink:href="#13" y="4.342"/><use xlink:href="#14" y="6.513"/><use xlink:href="#16" y="8.684"/><use xlink:href="#17" y="10.855"/><use xlink:href="#18" y="13.026"/><use xlink:href="#19" y="15.197"/><use xlink:href="#20" y="17.368"/><use xlink:href="#21" y="19.539"/><use xlink:href="#22" y="21.71"/><use xlink:href="#24" y="23.881"/><use xlink:href="#25" y="26.052"/><use xlink:href="#26" y="28.223"/><use xlink:href="#27" y="30.394"/><use xlink:href="#28" y="32.565"/><use xlink:href="#10" y="34.736"/></svg><svg x="7500"><use xlink:href="#a"/><use xlink:href="#b" x="11.996" y="34.711"/><use xlink:href="#11"/><use xlink:href="#12" y="2.171"/><use xlink:href="#13" y="4.342"/><use xlink:href="#14" y="6.513"/><use xlink:href="#16" y="8.684"/><use xlink:href="#17" y="10.855"/><use xlink:href="#18" y="13.026"/><use xlink:href="#19" y="15.197"/><use xlink:href="#20" y="17.368"/><use xlink:href="#21" y="19.539"/><use xlink:href="#22" y="21.71"/><use xlink:href="#24" y="23.881"/><use xlink:href="#25" y="26.052"/><use xlink:href="#26" y="28.223"/><use xlink:href="#27" y="30.394"/><use xlink:href="#28" y="32.565"/><use xlink:href="#11" y="34.736"/></svg><svg x="7600"><use xlink:href="#a"/><use xlink:href="#b" x="-.004" y="36.882"/><use xlink:href="#11"/><use xlink:href="#12" y="2.171"/><use xlink:href="#13" y="4.342"/><use xlink:href="#14" y="6.513"/><use xlink:href="#16" y="8.684"/><use xlink:href="#17" y="10.855"/><use xlink:href="#18" y="13.026"/><use xlink:href="#19" y="15.197"/><use xlink:href="#20" y="17.368"/><use xlink:href="#21" y="19.539"/><use xlink:href="#22" y="21.71"/><use xlink:href="#24" y="23.881"/><use xlink:href="#25" y="26.052"/><use xlink:href="#26" y="28.223"/><use xlink:href="#27" y="30.394"/><use xlink:href="#28" y="32.565"/><use xlink:href="#11" y="34.736"/></svg><svg x="7700"><use xlink:href="#a"/><use xlink:href="#b" x="-.004" y="43.395"/><use xlink:href="#11"/><use xlink:href="#12" y="2.171"/><use xlink:href="#13" y="4.342"/><use xlink:href="#14" y="6.513"/><use xlink:href="#16" y="8.684"/><use xlink:href="#17" y="10.855"/><use xlink:href="#18" y="13.026"/><use xlink:href="#19" y="15.197"/><use xlink:href="#20" y="17.368"/><use xlink:href="#21" y="19.539"/><use xlink:href="#22" y="21.71"/><use xlink:href="#24" y="23.881"/><use xlink:href="#25" y="26.052"/><use xlink:href="#26" y="28.223"/><use xlink:href="#27" y="30.394"/><use xlink:href="#28" y="32.565"/><use xlink:href="#11" y="34.736"/><use xlink:href="#12" y="36.907"/><use xlink:href="#13" y="39.078"/><use xlink:href="#14" y="41.249"/></svg><svg x="7800"><use xlink:href="#a"/><use xlink:href="#b" x="1.996" y="43.395"/><use xlink:href="#11"/><use xlink:href="#12" y="2.171"/><use xlink:href="#13" y="4.342"/><use xlink:href="#14" y="6.513"/><use xlink:href="#16" y="8.684"/><use xlink:href="#17" y="10.855"/><use xlink:href="#18" y="13.026"/><use xlink:href="#19" y="15.197"/><use xlink:href="#20" y="17.368"/><use xlink:href="#21" y="19.539"/><use xlink:href="#22" y="21.71"/><use xlink:href="#24" y="23.881"/><use xlink:href="#25" y="26.052"/><use xlink:href="#26" y="28.223"/><use xlink:href="#27" y="30.394"/><use xlink:href="#28" y="32.565"/><use xlink:href="#11" y="34.736"/><use xlink:href="#12" y="36.907"/><use xlink:href="#13" y="39.078"/><use xlink:href="#14" y="41.249"/><use xlink:href="#1" y="43.42"/></svg></svg></g></g></svg></svg>