<svg xmlns="http://www.w3.org/2000/svg" xmlns:xlink="http://www.w3.org/1999/xlink" width="1040" height="711.3"><rect width="1040" height="711.3" rx="5" ry="5" class="a"/><svg y="0%" x="0%"><circle cx="20" cy="20" r="6" fill="#ff5f58"/><circle cx="40" cy="20" r="6" fill="#ffbd2e"/><circle cx="60" cy="20" r="6" fill="#18c132"/></svg><svg height="651.3" viewBox="0 0 100 65.13" width="1000" x="15" xmlns="http://www.w3.org/2000/svg" xmlns:xlink="http://www.w3.org/1999/xlink" y="50"><style>@keyframes l{0%{transform:translateX(0)}3.5%{transform:translateX(-100px)}6.9%{transform:translateX(-200px)}20.5%{transform:translateX(-300px)}27.2%{transform:translateX(-400px)}30%{transform:translateX(-500px)}35.4%{transform:translateX(-600px)}42.2%{transform:translateX(-700px)}45%{transform:translateX(-800px)}50.4%{transform:translateX(-900px)}57.2%{transform:translateX(-1000px)}59.9%{transform:translateX(-1100px)}65.3%{transform:translateX(-1200px)}72.1%{transform:translateX(-1300px)}74.9%{transform:translateX(-1500px)}80.3%{transform:translateX(-1600px)}87.1%{transform:translateX(-1700px)}89.8%{transform:translateX(-1800px)}to{transform:translateX(-1900px)}}.a{fill:#282d35}.f,.g,.h,.i{white-space:pre}.f{fill:#a8cc8c;font-weight:700}.g,.h,.i{fill:#b9c0cb}.h,.i{fill:#dbab79;font-weight:700}.i{fill:#66c2cd}</style><g font-family="Monaco,Consolas,Menlo,'Bitstream Vera Sans Mono','Powerline Symbols',monospace" font-size="1.67"><defs><symbol id="1"><text y="1.67" class="f">berth</text><text x="6.012" y="1.67" class="g">—</text><text x="8.016" y="1.67" class="g">consistent</text><text x="19.038" y="1.67" class="g">dev</text><text x="23.046" y="1.67" class="g">workspaces,</text><text x="35.07" y="1.67" class="g">local</text><text x="41.082" y="1.67" class="g">or</text><text x="44.088" y="1.67" class="g">remote</text></symbol><symbol id="2"><text y="1.67" class="h">#</text><text x="2.004" y="1.67" class="h">auto-discover</text><text x="16.032" y="1.67" class="h">what</text><text x="21.042" y="1.67" class="h">is</text><text x="24.048" y="1.67" class="h">on</text><text x="27.054" y="1.67" class="h">this</text><text x="32.064" y="1.67" class="h">host</text></symbol><symbol id="3"><text y="1.67" class="i">$</text><text x="2.004" y="1.67" class="g">berth</text><text x="8.016" y="1.67" class="g">doctor</text></symbol><symbol id="4"><text y="1.67" class="g">Berth</text><text x="6.012" y="1.67" class="g">discovery</text></symbol><symbol id="5"><text y="1.67" class="g">Auto-discovery:</text><text x="16.032" y="1.67" class="g">enabled</text></symbol><symbol id="6"><text y="1.67" class="g">Default</text><text x="8.016" y="1.67" class="g">local</text><text x="14.028" y="1.67" class="g">runtime:</text><text x="23.046" y="1.67" class="g">bare</text></symbol><symbol id="7"><text y="1.67" class="g">Default</text><text x="8.016" y="1.67" class="g">idle</text><text x="13.026" y="1.67" class="g">shutdown:</text><text x="23.046" y="1.67" class="g">3600s</text></symbol><symbol id="8"><text y="1.67" class="g">Podman:</text><text x="8.016" y="1.67" class="g">missing</text><text x="16.032" y="1.67" class="g">(not</text><text x="21.042" y="1.67" class="g">found</text><text x="27.054" y="1.67" class="g">on</text><text x="30.06" y="1.67" class="g">PATH)</text></symbol><symbol id="9"><text y="1.67" class="g">kubectl:</text><text x="9.018" y="1.67" class="g">missing</text><text x="17.034" y="1.67" class="g">(not</text><text x="22.044" y="1.67" class="g">found</text><text x="28.056" y="1.67" class="g">on</text><text x="31.062" y="1.67" class="g">PATH)</text></symbol><symbol id="10"><text y="1.67" class="g">minikube:</text><text x="10.02" y="1.67" class="g">missing</text><text x="18.036" y="1.67" class="g">(not</text><text x="23.046" y="1.67" class="g">found</text><text x="29.058" y="1.67" class="g">on</text><text x="32.064" y="1.67" class="g">PATH)</text></symbol><symbol id="11"><text y="1.67" class="g">Kubernetes</text><text x="11.022" y="1.67" class="g">pod</text><text x="15.03" y="1.67" class="g">defaults:</text><text x="25.05" y="1.67" class="g">unavailable</text></symbol><symbol id="12"><text y="1.67" class="h">#</text><text x="2.004" y="1.67" class="h">create</text><text x="9.018" y="1.67" class="h">a</text><text x="11.022" y="1.67" class="h">workspace</text></symbol><symbol id="13"><text y="1.67" class="i">$</text><text x="2.004" y="1.67" class="g">berth</text><text x="8.016" y="1.67" class="g">new</text><text x="12.024" y="1.67" class="g">demo</text><text x="17.034" y="1.67" class="g">/work/demo</text></symbol><symbol id="14"><text y="1.67" class="g">Created</text><text x="8.016" y="1.67" class="g">workspace</text><text x="18.036" y="1.67" class="g">&apos;demo&apos;</text><text x="25.05" y="1.67" class="g">at</text><text x="28.056" y="1.67" class="g">/work/demo</text></symbol><symbol id="15"><text y="1.67" class="h">#</text><text x="2.004" y="1.67" class="h">list</text></symbol><symbol id="16"><text y="1.67" class="i">$</text><text x="2.004" y="1.67" class="g">berth</text><text x="8.016" y="1.67" class="g">list</text></symbol><symbol id="17"><text y="1.67" class="g">NAME</text><text x="21.042" y="1.67" class="g">TYPE</text><text x="32.064" y="1.67" class="g">PATH</text></symbol><symbol id="18"><text y="1.67" class="g">------------------------------------------------------------</text></symbol><symbol id="19"><text y="1.67" class="g">demo</text><text x="21.042" y="1.67" class="g">local</text><text x="32.064" y="1.67" class="g">/work/demo</text></symbol><symbol id="20"><text y="1.67" class="h">#</text><text x="2.004" y="1.67" class="h">run</text><text x="6.012" y="1.67" class="h">a</text><text x="8.016" y="1.67" class="h">command</text><text x="16.032" y="1.67" class="h">in</text><text x="19.038" y="1.67" class="h">the</text><text x="23.046" y="1.67" class="h">workspace</text></symbol><symbol id="21"><text y="1.67" class="i">$</text><text x="2.004" y="1.67" class="g">berth</text><text x="8.016" y="1.67" class="g">run</text><text x="12.024" y="1.67" class="g">demo</text><text x="17.034" y="1.67" class="g">--</text><text x="20.04" y="1.67" class="g">echo</text><text x="25.05" y="1.67" class="g">hello</text><text x="31.062" y="1.67" class="g">from</text><text x="36.072" y="1.67" class="g">a</text><text x="38.076" y="1.67" class="g">berth</text><text x="44.088" y="1.67" class="g">workspace</text></symbol><symbol id="22"><text y="1.67" class="g">Running</text><text x="8.016" y="1.67" class="g">locally</text><text x="16.032" y="1.67" class="g">in</text><text x="19.038" y="1.67" class="g">/work/demo:</text><text x="31.062" y="1.67" class="g">echo</text><text x="36.072" y="1.67" class="g">hello</text><text x="42.084" y="1.67" class="g">from</text><text x="47.094" y="1.67" class="g">a</text><text x="49.098" y="1.67" class="g">berth</text><text x="55.11" y="1.67" class="g">workspace</text></symbol><symbol id="23"><text y="1.67" class="g">hello</text><text x="6.012" y="1.67" class="g">from</text><text x="11.022" y="1.67" class="g">a</text><text x="13.026" y="1.67" class="g">berth</text><text x="19.038" y="1.67" class="g">workspace</text></symbol><symbol id="24"><text y="1.67" class="h">#</text><text x="2.004" y="1.67" class="h">shell</text><text x="8.016" y="1.67" class="h">integration</text><text x="20.04" y="1.67" class="h">loads</text><text x="26.052" y="1.67" class="h">bash</text><text x="31.062" y="1.67" class="h">and</text><text x="35.07" y="1.67" class="h">zsh</text><text x="39.078" y="1.67" class="h">hooks</text></symbol><symbol id="25"><text y="1.67" class="i">$</text><text x="2.004" y="1.67" class="g">berth</text><text x="8.016" y="1.67" class="g">init-shell</text><text x="19.038" y="1.67" class="g">|</text><text x="21.042" y="1.67" class="g">head</text><text x="26.052" y="1.67" class="g">-3</text></symbol><symbol id="26"><text y="1.67" class="g">#</text><text x="2.004" y="1.67" class="g">berth</text><text x="8.016" y="1.67" class="g">shell</text><text x="14.028" y="1.67" class="g">integration</text></symbol><symbol id="27"><text y="1.67" class="g">#</text><text x="2.004" y="1.67" class="g">Usage:</text><text x="9.018" y="1.67" class="g">eval</text><text x="14.028" y="1.67" class="g">&quot;$(berth</text><text x="23.046" y="1.67" class="g">init-shell)&quot;</text></symbol><symbol id="28"><text y="1.67" class="g">#</text><text x="2.004" y="1.67" class="g">Supported</text><text x="12.024" y="1.67" class="g">shells:</text><text x="20.04" y="1.67" class="g">bash,</text><text x="26.052" y="1.67" class="g">zsh</text></symbol><symbol id="a"><path fill="transparent" d="M0 0h100v31H0z"/></symbol><symbol id="b"><path fill="#6f7683" d="M0 0h1.102v2.171H0z"/></symbol></defs><path class="a" d="M0 0h100v65.13H0z"/><g style="animation-duration:14.770784s;animation-iteration-count:infinite;animation-name:l;animation-timing-function:steps(1,end)"><svg width="2000"><svg><use xlink:href="#a"/><use xlink:href="#b" x="-.004"/></svg><svg x="100"><use xlink:href="#a"/><use xlink:href="#b" x="-.004"/></svg><svg x="200"><use xlink:href="#a"/><use xlink:href="#b" x="-.004" y="2.146"/><use xlink:href="#1"/></svg><svg x="300"><use xlink:href="#a"/><use xlink:href="#b" x="-.004" y="6.488"/><use xlink:href="#1"/><use xlink:href="#2" y="4.342"/></svg><svg x="400"><use xlink:href="#a"/><use xlink:href="#b" x="-.004" y="8.659"/><use xlink:href="#1"/><use xlink:href="#2" y="4.342"/><use xlink:href="#3" y="6.513"/></svg><svg x="500"><use xlink:href="#a"/><use xlink:href="#b" x="-.004" y="26.027"/><use xlink:href="#1"/><use xlink:href="#2" y="4.342"/><use xlink:href="#3" y="6.513"/><use xlink:href="#4" y="8.684"/><use xlink:href="#5" y="10.855"/><use xlink:href="#6" y="13.026"/><use xlink:href="#7" y="15.197"/><use xlink:href="#8" y="17.368"/><use xlink:href="#9" y="19.539"/><use xlink:href="#10" y="21.71"/><use xlink:href="#11" y="23.881"/></svg><svg x="600"><use xlink:href="#a"/><use xlink:href="#b" x="-.004" y="30.369"/><use xlink:href="#1"/><use xlink:href="#2" y="4.342"/><use xlink:href="#3" y="6.513"/><use xlink:href="#4" y="8.684"/><use xlink:href="#5" y="10.855"/><use xlink:href="#6" y="13.026"/><use xlink:href="#7" y="15.197"/><use xlink:href="#8" y="17.368"/><use xlink:href="#9" y="19.539"/><use xlink:href="#10" y="21.71"/><use xlink:href="#11" y="23.881"/><use xlink:href="#12" y="28.223"/></svg><svg x="700"><use xlink:href="#a"/><use xlink:href="#b" x="-.004" y="32.54"/><use xlink:href="#1"/><use xlink:href="#2" y="4.342"/><use xlink:href="#3" y="6.513"/><use xlink:href="#4" y="8.684"/><use xlink:href="#5" y="10.855"/><use xlink:href="#6" y="13.026"/><use xlink:href="#7" y="15.197"/><use xlink:href="#8" y="17.368"/><use xlink:href="#9" y="19.539"/><use xlink:href="#10" y="21.71"/><use xlink:href="#11" y="23.881"/><use xlink:href="#12" y="28.223"/><use xlink:href="#13" y="30.394"/></svg><svg x="800"><use xlink:href="#a"/><use xlink:href="#b" x="-.004" y="34.711"/><use xlink:href="#1"/><use xlink:href="#2" y="4.342"/><use xlink:href="#3" y="6.513"/><use xlink:href="#4" y="8.684"/><use xlink:href="#5" y="10.855"/><use xlink:href="#6" y="13.026"/><use xlink:href="#7" y="15.197"/><use xlink:href="#8" y="17.368"/><use xlink:href="#9" y="19.539"/><use xlink:href="#10" y="21.71"/><use xlink:href="#11" y="23.881"/><use xlink:href="#12" y="28.223"/><use xlink:href="#13" y="30.394"/><use xlink:href="#14" y="32.565"/></svg><svg x="900"><use xlink:href="#a"/><use xlink:href="#b" x="-.004" y="39.053"/><use xlink:href="#1"/><use xlink:href="#2" y="4.342"/><use xlink:href="#3" y="6.513"/><use xlink:href="#4" y="8.684"/><use xlink:href="#5" y="10.855"/><use xlink:href="#6" y="13.026"/><use xlink:href="#7" y="15.197"/><use xlink:href="#8" y="17.368"/><use xlink:href="#9" y="19.539"/><use xlink:href="#10" y="21.71"/><use xlink:href="#11" y="23.881"/><use xlink:href="#12" y="28.223"/><use xlink:href="#13" y="30.394"/><use xlink:href="#14" y="32.565"/><use xlink:href="#15" y="36.907"/></svg><svg x="1000"><use xlink:href="#a"/><use xlink:href="#b" x="-.004" y="41.224"/><use xlink:href="#1"/><use xlink:href="#2" y="4.342"/><use xlink:href="#3" y="6.513"/><use xlink:href="#4" y="8.684"/><use xlink:href="#5" y="10.855"/><use xlink:href="#6" y="13.026"/><use xlink:href="#7" y="15.197"/><use xlink:href="#8" y="17.368"/><use xlink:href="#9" y="19.539"/><use xlink:href="#10" y="21.71"/><use xlink:href="#11" y="23.881"/><use xlink:href="#12" y="28.223"/><use xlink:href="#13" y="30.394"/><use xlink:href="#14" y="32.565"/><use xlink:href="#15" y="36.907"/><use xlink:href="#16" y="39.078"/></svg><svg x="1100"><use xlink:href="#a"/><use xlink:href="#b" x="-.004" y="47.737"/><use xlink:href="#1"/><use xlink:href="#2" y="4.342"/><use xlink:href="#3" y="6.513"/><use xlink:href="#4" y="8.684"/><use xlink:href="#5" y="10.855"/><use xlink:href="#6" y="13.026"/><use xlink:href="#7" y="15.197"/><use xlink:href="#8" y="17.368"/><use xlink:href="#9" y="19.539"/><use xlink:href="#10" y="21.71"/><use xlink:href="#11" y="23.881"/><use xlink:href="#12" y="28.223"/><use xlink:href="#13" y="30.394"/><use xlink:href="#14" y="32.565"/><use xlink:href="#15" y="36.907"/><use xlink:href="#16" y="39.078"/><use xlink:href="#17" y="41.249"/><use xlink:href="#18" y="43.42"/><use xlink:href="#19" y="45.591"/></svg><svg x="1200"><use xlink:href="#a"/><use xlink:href="#b" x="-.004" y="52.079"/><use xlink:href="#1"/><use xlink:href="#2" y="4.342"/><use xlink:href="#3" y="6.513"/><use xlink:href="#4" y="8.684"/><use xlink:href="#5" y="10.855"/><use xlink:href="#6" y="13.026"/><use xlink:href="#7" y="15.197"/><use xlink:href="#8" y="17.368"/><use xlink:href="#9" y="19.539"/><use xlink:href="#10" y="21.71"/><use xlink:href="#11" y="23.881"/><use xlink:href="#12" y="28.223"/><use xlink:href="#13" y="30.394"/><use xlink:href="#14" y="32.565"/><use xlink:href="#15" y="36.907"/><use xlink:href="#16" y="39.078"/><use xlink:href="#17" y="41.249"/><use xlink:href="#18" y="43.42"/><use xlink:href="#19" y="45.591"/><use xlink:href="#20" y="49.933"/></svg><svg x="1300"><use xlink:href="#a"/><use xlink:href="#b" x="-.004" y="54.25"/><use xlink:href="#1"/><use xlink:href="#2" y="4.342"/><use xlink:href="#3" y="6.513"/><use xlink:href="#4" y="8.684"/><use xlink:href="#5" y="10.855"/><use xlink:href="#6" y="13.026"/><use xlink:href="#7" y="15.197"/><use xlink:href="#8" y="17.368"/><use xlink:href="#9" y="19.539"/><use xlink:href="#10" y="21.71"/><use xlink:href="#11" y="23.881"/><use xlink:href="#12" y="28.223"/><use xlink:href="#13" y="30.394"/><use xlink:href="#14" y="32.565"/><use xlink:href="#15" y="36.907"/><use xlink:href="#16" y="39.078"/><use xlink:href="#17" y="41.249"/><use xlink:href="#18" y="43.42"/><use xlink:href="#19" y="45.591"/><use xlink:href="#20" y="49.933"/><use xlink:href="#21" y="52.104"/></svg><svg x="1400"><use xlink:href="#a"/><use xlink:href="#b" x="-.004" y="56.421"/><use xlink:href="#1"/><use xlink:href="#2" y="4.342"/><use xlink:href="#3" y="6.513"/><use xlink:href="#4" y="8.684"/><use xlink:href="#5" y="10.855"/><use xlink:href="#6" y="13.026"/><use xlink:href="#7" y="15.197"/><use xlink:href="#8" y="17.368"/><use xlink:href="#9" y="19.539"/><use xlink:href="#10" y="21.71"/><use xlink:href="#11" y="23.881"/><use xlink:href="#12" y="28.223"/><use xlink:href="#13" y="30.394"/><use xlink:href="#14" y="32.565"/><use xlink:href="#15" y="36.907"/><use xlink:href="#16" y="39.078"/><use xlink:href="#17" y="41.249"/><use xlink:href="#18" y="43.42"/><use xlink:href="#19" y="45.591"/><use xlink:href="#20" y="49.933"/><use xlink:href="#21" y="52.104"/><use xlink:href="#22" y="54.275"/></svg><svg x="1500"><use xlink:href="#a"/><use xlink:href="#b" x="-.004" y="60.763"/><use xlink:href="#1"/><use xlink:href="#2" y="4.342"/><use xlink:href="#3" y="6.513"/><use xlink:href="#4" y="8.684"/><use xlink:href="#5" y="10.855"/><use xlink:href="#6" y="13.026"/><use xlink:href="#7" y="15.197"/><use xlink:href="#8" y="17.368"/><use xlink:href="#9" y="19.539"/><use xlink:href="#10" y="21.71"/><use xlink:href="#11" y="23.881"/><use xlink:href="#12" y="28.223"/><use xlink:href="#13" y="30.394"/><use xlink:href="#14" y="32.565"/><use xlink:href="#15" y="36.907"/><use xlink:href="#16" y="39.078"/><use xlink:href="#17" y="41.249"/><use xlink:href="#18" y="43.42"/><use xlink:href="#19" y="45.591"/><use xlink:href="#20" y="49.933"/><use xlink:href="#21" y="52.104"/><use xlink:href="#22" y="54.275"/><use xlink:href="#23" y="56.446"/></svg><svg x="1600"><use xlink:href="#a"/><use xlink:href="#b" x="-.004" y="65.105"/><use xlink:href="#1"/><use xlink:href="#2" y="4.342"/><use xlink:href="#3" y="6.513"/><use xlink:href="#4" y="8.684"/><use xlink:href="#5" y="10.855"/><use xlink:href="#6" y="13.026"/><use xlink:href="#7" y="15.197"/><use xlink:href="#8" y="17.368"/><use xlink:href="#9" y="19.539"/><use xlink:href="#10" y="21.71"/><use xlink:href="#11" y="23.881"/><use xlink:href="#12" y="28.223"/><use xlink:href="#13" y="30.394"/><use xlink:href="#14" y="32.565"/><use xlink:href="#15" y="36.907"/><use xlink:href="#16" y="39.078"/><use xlink:href="#17" y="41.249"/><use xlink:href="#18" y="43.42"/><use xlink:href="#19" y="45.591"/><use xlink:href="#20" y="49.933"/><use xlink:href="#21" y="52.104"/><use xlink:href="#22" y="54.275"/><use xlink:href="#23" y="56.446"/><use xlink:href="#24" y="62.959"/></svg><svg x="1700"><use xlink:href="#a"/><use xlink:href="#b" x="-.004" y="65.105"/><use xlink:href="#2" y="2.171"/><use xlink:href="#3" y="4.342"/><use xlink:href="#4" y="6.513"/><use xlink:href="#5" y="8.684"/><use xlink:href="#6" y="10.855"/><use xlink:href="#7" y="13.026"/><use xlink:href="#8" y="15.197"/><use xlink:href="#9" y="17.368"/><use xlink:href="#10" y="19.539"/><use xlink:href="#11" y="21.71"/><use xlink:href="#12" y="26.052"/><use xlink:href="#13" y="28.223"/><use xlink:href="#14" y="30.394"/><use xlink:href="#15" y="34.736"/><use xlink:href="#16" y="36.907"/><use xlink:href="#17" y="39.078"/><use xlink:href="#18" y="41.249"/><use xlink:href="#19" y="43.42"/><use xlink:href="#20" y="47.762"/><use xlink:href="#21" y="49.933"/><use xlink:href="#22" y="52.104"/><use xlink:href="#23" y="54.275"/><use xlink:href="#24" y="60.788"/><use xlink:href="#25" y="62.959"/></svg><svg x="1800"><use xlink:href="#a"/><use xlink:href="#b" x="-.004" y="65.105"/><use xlink:href="#4"/><use xlink:href="#5" y="2.171"/><use xlink:href="#6" y="4.342"/><use xlink:href="#7" y="6.513"/><use xlink:href="#8" y="8.684"/><use xlink:href="#9" y="10.855"/><use xlink:href="#10" y="13.026"/><use xlink:href="#11" y="15.197"/><use xlink:href="#12" y="19.539"/><use xlink:href="#13" y="21.71"/><use xlink:href="#14" y="23.881"/><use xlink:href="#15" y="28.223"/><use xlink:href="#16" y="30.394"/><use xlink:href="#17" y="32.565"/><use xlink:href="#18" y="34.736"/><use xlink:href="#19" y="36.907"/><use xlink:href="#20" y="41.249"/><use xlink:href="#21" y="43.42"/><use xlink:href="#22" y="45.591"/><use xlink:href="#23" y="47.762"/><use xlink:href="#24" y="54.275"/><use xlink:href="#25" y="56.446"/><use xlink:href="#26" y="58.617"/><use xlink:href="#27" y="60.788"/><use xlink:href="#28" y="62.959"/></svg><svg x="1900"><use xlink:href="#a"/><use xlink:href="#b" x="-.004" y="65.105"/><use xlink:href="#6"/><use xlink:href="#7" y="2.171"/><use xlink:href="#8" y="4.342"/><use xlink:href="#9" y="6.513"/><use xlink:href="#10" y="8.684"/><use xlink:href="#11" y="10.855"/><use xlink:href="#12" y="15.197"/><use xlink:href="#13" y="17.368"/><use xlink:href="#14" y="19.539"/><use xlink:href="#15" y="23.881"/><use xlink:href="#16" y="26.052"/><use xlink:href="#17" y="28.223"/><use xlink:href="#18" y="30.394"/><use xlink:href="#19" y="32.565"/><use xlink:href="#20" y="36.907"/><use xlink:href="#21" y="39.078"/><use xlink:href="#22" y="41.249"/><use xlink:href="#23" y="43.42"/><use xlink:href="#24" y="49.933"/><use xlink:href="#25" y="52.104"/><use xlink:href="#26" y="54.275"/><use xlink:href="#27" y="56.446"/><use xlink:href="#28" y="58.617"/><text y="64.629" class="f">ready.</text></svg></svg></g></g></svg></svg>